<?xml version="1.0" encoding="utf-8"?>
<!-- Generator: Adobe Illustrator 18.0.0, SVG Export Plug-In . SVG Version: 6.00 Build 0)  -->
<!DOCTYPE svg PUBLIC "-//W3C//DTD SVG 1.1//EN" "http://www.w3.org/Graphics/SVG/1.1/DTD/svg11.dtd">
<svg version="1.1" id="Icon_Set" xmlns="http://www.w3.org/2000/svg" xmlns:xlink="http://www.w3.org/1999/xlink" x="0px" y="0px"
	 viewBox="0 0 512 512" style="enable-background:new 0 0 512 512;" xml:space="preserve">
<style type="text/css">
	.st0{fill:#4C4372;}
	.st1{fill:#F0C48A;}
	.st2{fill:#FD919E;}
	.st3{fill:#E8677D;}
	.st4{fill:#A4CFF2;}
	.st5{fill:#7BABF1;}
	.st6{fill:#FFFFFF;}
	.st7{fill:#D3E6F8;}
</style>
<g>
	<g>
		<g>
			<g>
				<circle class="st1" cx="256" cy="256" r="207"/>
			</g>
		</g>
	</g>
	<g>
		<polygon class="st7" points="197.19,364.206 226.595,167.912 285.405,167.912 314.81,364.206 256,445.103 		"/>
	</g>
	<g>
		<polygon class="st7" points="226.595,168 197.19,99.857 226.595,67 285.405,67 314.81,99.857 285.405,168 		"/>
	</g>
	<g>
		<polygon class="st4" points="285.405,67 262.655,67 292.06,99.857 262.655,168 285.405,168 314.81,99.857 		"/>
	</g>
	<g>
		<polygon class="st4" points="285.405,168 264.239,168 292.404,356.018 241.79,425.639 256,445.186 314.81,364.291 		"/>
	</g>
	<g>
		<path class="st0" d="M285.405,174h-58.81c-2.395,0-4.56-1.424-5.509-3.623l-29.405-68.143c-0.927-2.146-0.521-4.636,1.038-6.378
			l29.405-32.857c1.138-1.272,2.764-1.999,4.471-1.999h58.81c1.707,0,3.333,0.727,4.471,1.999l29.405,32.857
			c1.559,1.742,1.964,4.231,1.038,6.378l-29.405,68.143C289.965,172.576,287.799,174,285.405,174z M230.541,162h50.918
			l26.323-60.999L282.723,73h-53.445l-25.059,28.001L230.541,162z"/>
	</g>
	<g>
		<path class="st0" d="M256,451.103c-1.92,0-3.724-0.919-4.853-2.472l-58.81-80.896c-0.926-1.273-1.314-2.86-1.081-4.417
			l29.405-196.294c0.44-2.938,2.963-5.111,5.934-5.111h58.81c2.97,0,5.494,2.174,5.934,5.111l29.405,196.294
			c0.233,1.557-0.155,3.144-1.081,4.417l-58.81,80.896C259.724,450.184,257.92,451.103,256,451.103z M203.488,362.665L256,434.898
			l52.512-72.233l-28.275-188.753h-48.474L203.488,362.665z"/>
	</g>
</g>
</svg>
